<svg id="Calque_2" data-name="Calque 2" xmlns="http://www.w3.org/2000/svg" viewBox="0 0 800 800"><defs><style>.cls-1,.cls-15,.cls-5{fill:#64a7c1;}.cls-1{opacity:0.1;}.cls-2{fill:#9fc7d3;}.cls-3{fill:#badbe5;}.cls-4{fill:#78b0c1;}.cls-5{opacity:0.63;}.cls-6{fill:#b2ccce;}.cls-7{fill:#f5a22b;}.cls-8{fill:#e59123;}.cls-9{fill:#1c1731;}.cls-10{fill:#e0524b;}.cls-11{fill:#cc4646;}.cls-12{fill:#134e6f;}.cls-13{fill:#114860;}.cls-14{fill:#124a63;}.cls-16{fill:#f29820;}.cls-17{fill:#ef890f;}.cls-18{fill:#d9e9ed;}</style></defs><title>Formulaires</title><path class="cls-1" d="M88.68,636C-22.11,575.56-15.23,332.51,29.9,240.78S156.18,81.88,324,103.92s205.56,123.94,238.1,171.65,111.25,57.16,122.8,157.92S591.43,699,470.73,698,220.53,708,88.68,636Z"/><path class="cls-2" d="M609.58,361.65,540,348.27a3.36,3.36,0,0,1-2.76-3.3V219.38a3.36,3.36,0,0,1,2.94-3.33l69.56-9.24a3.35,3.35,0,0,1,3.77,3.33v148.2A3.36,3.36,0,0,1,609.58,361.65Z"/><path class="cls-3" d="M605.34,360.94l-69.55-12.56a3.36,3.36,0,0,1-2.76-3.31V219.49a3.36,3.36,0,0,1,2.94-3.33l69.55-8.7a3.37,3.37,0,0,1,3.78,3.34V357.63A3.36,3.36,0,0,1,605.34,360.94Z"/><polygon class="cls-4" points="602.94 234.43 539.38 240.78 539.38 235.49 602.94 228.07 602.94 234.43"/><polygon class="cls-4" points="602.94 301.16 539.38 300.11 539.38 305.4 602.94 308.58 602.94 301.16"/><polygon class="cls-4" points="602.94 264.09 539.38 269.38 539.38 274.68 602.94 271.5 602.94 264.09"/><polygon class="cls-4" points="602.94 337.18 539.38 329.77 539.38 335.06 602.94 343.54 602.94 337.18"/><path class="cls-5" d="M279.17,346.48c-3.79-1.17-3.16-1.75,3.15-2.91s39.76,12.8,39.76,12.8c0-4.65-3.79-15.71-5.68-18.62s-7.57-4.66-12.62-5.82-18.93.58-19.57-.58,2.53-1.17,12-2.33,20.19,4.65,20.19,4.65c-3.79-13.38-18.93-20.37-20.19-19.79s-5.68,1.17-9.47,3.5-4.42-1.17-3.16-2.91,8.21-4.08,11.36-4.66S300,313.3,300,313.3c0-4.66-2.52-10.48-14.51-13.39s-17,5.82-18.3,8.73,0,6.41-1.9,10.48-3.78-.58-3.78-2.33c0,0,1.89-6.4,0-16.29s-18.31-8.15-28.4-8.15-12.63,7-12.63,7c5.68-2.33,23.35,9.31,20.2,11.64s-7.57-1.16-12-3.49-7.58-4.66-15.78-1.75-12.62,12.81-12.62,13.39c1.89-1.16,22.09-1.16,29,.58s5.05,4.66,2.52,4.66-16.41-.58-24-.58-10.1,0-14.51,9.31-1.27,16.3-1.27,16.3c1.9-4.08,25.25-11.64,30.3-12.22s15.77-.59,16.41.58-8.84,4.07-17,4.65-26.51,9.9-27.77,11.65,0,23.86,0,23.86c.63-1.16,36-23.28,40.39-25s15.78-2.33,5.68,1.75-37.87,25-38.5,32,6.31,18.05,6.31,17.46,6.31-5.23,14.52-15.13c17.67-20.37,25.87-19.21,27.13-18s1.9,4.07-8.83,11.06-25.88,25.61-25.25,29.68a31.3,31.3,0,0,0,13.89,16.88c-.63-1.75-.63-10.48.63-13.39S248.87,390.72,251.4,396s-6.31,14.56-8.84,18.63-6.94,14.55-5.68,18,11.36,7,11.36,7a16.33,16.33,0,0,1-3.78-5.82c-1.27-3.49,4.41-11.06,8.83-15.72s5.68-.58,5,3.5-4.42,18-4.42,18c1.26,0,15.15,5.24,15.15,5.24a43.79,43.79,0,0,1,.63-5.24c.63-4.07,8.2-7.57,7.57-8.15s-1.89-6.4-2.52-7.57-10.73-26.77.63-14.55,6.94,19.21,6.94,19.21c8.21-2.91,14.52-14,13.89-15.72a40.9,40.9,0,0,0-5.68-9.89c-3.16-4.07-15.78-12.81-18.31-17.46s.63-4.66,3.16-4.08,14.51,16.3,19.56,21.54,5.05,8.15,5.05,8.15c10.1-7.57,10.73-18.63,10.1-20.37-11.36-16.88-29.66-23.29-33.45-26.2s0-3.49,6.31-2.33,30.93,26.2,30.93,26.2c5.05-6.4,5.05-21.54,3.78-23.28C313.25,355.21,283,347.64,279.17,346.48Zm-24-14c3.16.58,1.27,2.91-1.26,4.07a4.86,4.86,0,0,1-5.68-1.16C247,334.26,252,331.93,255.18,332.51Zm.64,32c-2.53,2.33-1.27,3.5-5.68,2.91s-5-2.32-4.42-2.91c2.52-2.33,6.31-5.24,8.83-4.65S258.34,362.19,255.82,364.52Zm1.89-17.46a4,4,0,0,1-5-.58c-1.26-1.17,1.26-2.33,3.79-3.49a3.49,3.49,0,0,1,3.15.58C260.86,344.73,259.6,345.9,257.71,347.06Zm10.1,5.24s2.52,1.75,2.52,2.91-3.79,0-5.68-1.75S265.91,351.14,267.81,352.3Zm-1.9,21.54c-3.78-2.33-.07-5.31,2.53-2.91,1.26,1.16,3.78,3.49,3.78,5.23S269.7,376.16,265.91,373.84Z"/><path class="cls-5" d="M141.18,265.68c-2,.7-10.74,13.08-10.29,21.23,0,0,34.53-6.32,40.36-3.65s8.59,5.34,3.82,5.54-23.42-5.09-42.42,2.19c-1.53,1.06-7.37,10.47-3.46,22.47,0,0,1.67-2.38,8.82-3.76s26-7.34,28.39-6.37,5,2.79.23,5.15-20.09,2.24-25,3.76a40.19,40.19,0,0,0-10.34,4.83c-1.52,1.06-2.72,13.74,2.32,20.84,0,0,.4-8.26,16.73-11.72s-6.67,11.68-7.86,12.27-5.56,4.62-6.41,4.73,3.33,7.33,1.5,11a43.08,43.08,0,0,1-2.49,4.64s14.37,3.7,15.4,4.43c0,0,4.94-13.6,6.77-17.3s5.2-6.3,6.13.05,1.23,15.8-1.81,17.93a16.38,16.38,0,0,1-6.44,2.59s10.27,2.95,13.31.82,5.45-13.25,5.73-18-1.59-17.49,3.48-20.32,7.15,25,6.51,28.06-5.66,10.24-7.18,11.31A31.23,31.23,0,0,0,198,362.58c2.86-3,1.19-26.92-3.57-38.81s-2.57-13.9-.87-14.12,9.08,3.54,11.82,30.36c1,12.82,3.5,20.26,3.17,20.73s11.71-4.57,15.21-10.65-7.17-39.19-13.08-48.33,3-2.13,5.65,1.84S235.16,346,235,347.3c0,0,13.76-17.37,13.73-19.52s-9.64-20.3-16-25.49-12.45-13-11.26-13.61,10,5.58,13.76,9,18.54,23,17.75,27.42c0,0,6.6-3.9,8.34-14.06s-.32-11.61-6.52-16-17.89-11.86-19.95-13.31-1.94-4.92,4.74-2.36,23.2,14.18,24.08,16.22c.34-.48,2.42-11.11-2.62-18.21s-9-7-13.91-7.65-10.58-.32-11.82-4,19.91-3.08,23.22,2.1c0,0,2-7.17-6.31-13s-20.68-16.67-27.92-9.67-9.37,13.34-9.37,13.34c-1,1.42-5.24,4.15-4.44-.28s3.83-6.55,4.48-9.66,1.53-13.15-10-17.67-16.9-1.2-19.58,2.61c0,0,3.89-2.25,6.14,0s6.59,8.19,6.61,10.35-2.49,4.65-4.25.56-5-7.1-5.74-8.3-17.1-4.2-27.9,4.58c0,0,12.13,1.4,19.2,7.8s9.66,8.21,8.47,8.8-11.54-8.82-16.34-10.77S161.17,242.74,158,244s-12.68,8.16-15.36,12c0,0,35.4,7.81,39.89,12.39s4.67,5.42.91,4.2S150.49,260.13,141.18,265.68ZM215,281.33c-1.7.22-3.92.09-5.31-2.32s-1.61-5.4,1.31-4.06S216.75,281.1,215,281.33Zm-19.22,16.36c2.4,1,3.82,5.54,4.55,8.9.18.83-1.34,1.9-5.29-.16s-2.24-2.3-3-5.65S193.42,296.72,195.82,297.69Zm5.24-16.23A3.51,3.51,0,0,1,204,282.8c1.4,2.4,2.79,4.81,1.09,5a4,4,0,0,1-4.47-2.43C199.72,283.36,199.36,281.68,201.06,281.46Zm-9.82,5.19c-2.55.34-6.32-.89-5.65-1.84s3.74-.93,3.74-.93C191.55,284,193.8,286.31,191.24,286.65ZM172,300.86c1-1.43,4.41-1.88,6.11-2.1,3.51-.47,4.83,4.1.39,3.83S171,302.29,172,300.86Z"/><path class="cls-5" d="M115,403.35c-1.69.88-7.71,12.89-6.24,20,0,0,29.48-10.08,35-8.5s8.25,3.56,4.09,4.36-21.24-1.39-37,7.5c-1.2,1.13-5.09,10.16-.09,20.18,0,0,1.16-2.31,7.25-4.46s21.85-9.86,24.09-9.32,4.74,1.8.88,4.49-17.34,4.61-21.46,6.59a35.81,35.81,0,0,0-8.45,5.59c-1.19,1.14-.58,12.42,4.78,18,0,0-.73-7.3,13.14-12.49s-4.32,11.13-5.28,11.8-4.28,4.79-5,5,3.89,6,2.77,9.48a39.14,39.14,0,0,1-1.58,4.41s13.1,1.36,14.11,1.86c0,0,2.54-12.59,3.66-16.08s3.74-6.21,5.4-.76,3.15,13.71.76,16a14.43,14.43,0,0,1-5.32,3.11s9.41,1.24,11.8-1,3.05-12.34,2.66-16.58-3.69-15.14.39-18.3,9.55,21,9.4,23.78-3.63,9.74-4.82,10.88A27.81,27.81,0,0,0,177.68,481c2.12-3-2.5-23.79-8.24-33.6s-4.08-11.87-2.62-12.29,8.44,1.91,14.37,25.11c2.58,11.11,5.74,17.32,5.51,17.78s9.67-5.56,12-11.35-11.44-33.47-17.83-40.71,2.39-2.27,5.2.87,22.07,34.74,22.11,35.92c0,0,9.79-17.06,9.49-18.94s-11.14-16.56-17.42-20.28-12.64-9.8-11.67-10.47,9.48,3.59,13.25,6.06,19.31,17.76,19.19,21.74c0,0,5.28-4.29,5.48-13.44s-1.81-10.15-7.82-13.16-17.27-8.07-19.27-9.07-2.35-4.06,3.85-2.69,22.24,9.4,23.28,11.08c.23-.47.66-10.08-4.7-15.65s-8.78-5-13.22-4.88-9.32,1.1-10.9-2,17.07-5.32,20.66-1.21c0,0,.77-6.55-7.25-10.56s-20.34-11.92-25.78-4.82-6.48,12.93-6.48,12.93c-.69,1.39-4,4.33-3.93.35s2.51-6.26,2.66-9.07-.38-11.75-11.05-14.21-15,1.16-16.85,4.86c0,0,3.12-2.48,5.4-.77s6.86,6.33,7.16,8.22-1.58,4.41-3.66,1.05-5.35-5.57-6.12-6.53-15.57-1.44-23.9,7.68c0,0,10.83-.36,17.88,4.33s9.56,5.94,8.59,6.61-11.29-6.23-15.76-7.31-9.67-1.95-12.33-.4S116.85,391,115,394.66c0,0,32.1,2.21,36.65,5.64s4.81,4.14,1.35,3.56S122.47,397.25,115,403.35Zm66.91,4a4.32,4.32,0,0,1-5-1.34c-1.54-1.92-2.12-4.52.61-3.73S183.4,407,181.94,407.38Zm-14.73,16.89c2.24.55,4.09,4.36,5.16,7.21.27.72-.92,1.85-4.66.56s-2.27-1.72-3.35-4.57S165,423.73,167.21,424.27Zm2.47-14.94a3.14,3.14,0,0,1,2.74.79c1.54,1.93,3.08,3.86,1.62,4.28a3.6,3.6,0,0,1-4.24-1.54C168.76,411.18,168.22,409.75,169.68,409.33Zm-7.94,5.85c-2.2.63-5.66.05-5.2-.87S159.7,413,159.7,413C161.66,412.83,163.94,414.54,161.74,415.18Zm-15,15c.69-1.39,3.62-2.23,5.08-2.66,3-.87,4.78,3,.85,3.32S146,431.57,146.71,430.19Z"/><path class="cls-5" d="M142.16,380.34c-2-9-3.52-7.79-9-13s-10.7-10.7-8.87-14.06,6.12-1.53,8.41.76,11.92,11.92,13,18.19l1.07,6.27s9.63-18.8,3.06-36.69-11-20.18-15.2-21.92c-4-1.68-10.17,1.44-15.52-.85s-6.27-2-9.64,2.29l-3.36,4.28s1.68-2.6-2.29-7.49-2.36-3.24-5.05-6.27c-2.88-3.25-6.84-6-12.84-5.2-5.8.77-4.16,2.58-9.93,3.83-7.42,1.59-13.61,5-17,12.38s-5.5,9.47-4.74,11.46c0,0,5.05-6,10.09-6.72S72,327,74.9,326.54s3,.87,1.89,2.8-4.23,2.31-8.31,2.7c-2.15.2-10.55,2-13.15,7.64s-3.21,16.66-2.44,19c0,0,5.8-11.93,19.56-14.37s13.4-.25,13.73,1.25-.89,4-5.47,5.47-15.14,2.6-21.56,8.11-.3,21.7-.3,21.7S66.18,361.54,76,359.71c1.61,0,6.88-1.07,1.68,5.65s-10.09,10.4-13.15,13.15-4.89,8.25.31,13.45,13.45,6.42,16.2,13.76l2.75,7.34s2.91-4.74,12.54-6.12,18.34-.61,23.39-8.1.61-17.12-2.91-23.08,3.21-7.49,5.51-4.59,9.17,16.2,8.86,23.54C131.15,394.71,144.14,389.36,142.16,380.34ZM90,327c-2-.15-5.81-3.05-8.25-5.5s-3.06-5.5,1.22-5.2,8.25,7,8.25,7C93.6,326.53,92,327.15,90,327Zm-4.32,33c-2-1.07,1.23-4.6,1.23-4.6s3-2.31,4.79-1.28-.13,3.24-1,4.48S87.67,361,85.71,360Zm40.7-24.7c10.4-1.84,14.68,10.39,14.68,10.39-2-3.21-10.09-1.22-13.45-1.22S116,337.08,126.41,335.25Zm-55,53.28c-2.47-2.92,4.38-9.77,8-13.08s5.56-5.11,7.74-3.93.4,3.65-1.45,5.16a55.81,55.81,0,0,0-4.66,4.66C79.86,382.63,73.86,391.45,71.39,388.53Zm41.88-23.93c-4.74,2.9-7.49.76-8.56-3.36s.3-6.42,4.73-4.74C109.44,356.5,118,361.69,113.27,364.6ZM91.71,403.8c-3.42,1.74-4.66-3.65-2.86-5.78s3.54-4.1,4.77-1.63C93.78,396.71,95.14,402.06,91.71,403.8Zm17.46-23.41a22.6,22.6,0,0,1,2.14,14c-1.29,8.26-2.81,2.92-2.92,1.8l-.17-1.74a103.33,103.33,0,0,0-3.43-10.27c-1.29-2.76-2.63-6-1.23-7.53s3.37-1.23,4.49,1.24Z"/><path class="cls-5" d="M294.59,480.72c-6-7-6.81-5.18-14.12-7.13S266,469.28,266,465.45s4.65-4.26,7.76-3.33,16.16,4.8,20.09,9.8l3.93,5s-.49-21.12-14.8-33.71-19.29-12.5-23.8-12c-4.35.45-8.26,6.12-14.06,6.65s-6.46,1.24-7.38,6.61l-.91,5.36s.24-3.08-5.59-5.49-3.61-1.72-7.42-3.11c-4.08-1.48-8.87-2-13.76,1.55s-2.44,4.25-6.92,8.1c-5.76,4.94-9.56,10.91-9,19s-.32,10.95,1.3,12.33c0,0,1.59-7.64,5.66-10.72s6.43-4.18,8.77-6,3.06-.67,3,1.56-2.62,4-6,6.34c-1.8,1.2-8.33,6.77-7.92,13s5.12,16.18,6.88,17.83c0,0-.57-13.25,10.36-22s11.66-6.6,12.66-5.44,1.1,3.89-2.2,7.42-12.07,9.5-15.09,17.4,10.07,19.23,10.07,19.23-2.72-20.43,5-26.71c1.4-.81,5.54-4.22,4.18,4.17s-3.92,14-5.3,17.82-.36,9.59,6.68,11.69,14.89-.77,20.8,4.37l5.92,5.14s.29-5.55,8.11-11.35,15.83-9.28,16.7-18.27-7.62-15.34-13.55-18.9-.75-8.12,2.65-6.66,15.78,9.88,19,16.47C291.76,498.59,300.63,487.7,294.59,480.72Zm-71.25-22.07c-1.82.81-6.56.08-9.88-.9s-5.31-3.39-1.4-5.16,10.61,2.25,10.61,2.25C226.26,456.54,225.16,457.84,223.34,458.65Zm11.9,31c-2.23,0-1.11-4.64-1.11-4.64s1.52-3.44,3.61-3.4,1.43,2.91,1.23,4.42S237.48,489.69,235.24,489.69Zm24-41.12c8.27-6.56,17.85,2.15,17.85,2.15-3.27-1.88-9.45,3.73-12.4,5.33S251,455.14,259.26,448.57Zm-23,73.06c-3.56-1.39-.8-10.67.83-15.32s2.45-7.14,4.94-7.15,2.08,3,1.17,5.24a57,57,0,0,0-1.87,6.31C240.91,512.41,239.83,523,236.27,521.63Zm25.42-41c-2.79,4.81-6.22,4.24-9.13,1.12s-2.79-5.79,1.91-6.42C254.47,475.34,264.47,475.83,261.69,480.64Zm-.27,44.74c-2.18,3.16-5.84-1-5.28-3.72s1.16-5.29,3.42-3.71C259.85,518.15,263.6,522.21,261.42,525.38Zm4.19-28.91a22.63,22.63,0,0,1,8.57,11.32c2.79,7.88-1.08,3.91-1.71,3l-1-1.45a105.83,105.83,0,0,0-7.91-7.41c-2.44-1.8-5.18-4-4.67-6s2.37-2.69,4.54-1.06Z"/><ellipse class="cls-6" cx="328" cy="605.79" rx="210.31" ry="30.23"/><path class="cls-7" d="M498.4,340.18s4.75-7.8,5.92-21.09,1.57-14.49,3.32-16.87,18.8-5.93,19.59-6.35,11.38-1.45,13.12-1.27.86,3.67-1,4.2-8.74,1.37-10.22,1.92c-.73.27-3.06.69-5.07,1.5s-.5,1.06-.74,1.53c0,0,3.36,1.77,5.81,3.35s5,3.59,6.21,5.86-6.3,14.35-9.8,15.57-6.21,4-6.91,4.55-7,14-7,14Z"/><polygon class="cls-8" points="348.7 295.87 349.76 307.52 310.57 304.34 308.45 288.45 311.63 284.21 348.7 295.87"/><path class="cls-7" d="M371,248.2c-1,9.48-4.77,23.83-7.94,33.37s-7.17,18-9.54,18c-3.18,0-31.25-.53-42.9-11.13s-6.89-16.42-9-24.89-9.53-42.37,1.06-47.67,36-10.59,45.55-4.24S373.07,228.07,371,248.2Z"/><path class="cls-9" d="M282.09,278.66c.94,9.79,5.17,13,2,25.68s-4.59,16.78-4.59,16.78l13.06,9.71,23.53-14.6-4.49-27.46-6.94-10.11Z"/><path class="cls-10" d="M405.38,390.68a137,137,0,0,0-3.18,15.89c-1.06,7.41-2.12,12.71-2.12,19.06s-7.41,12.72-8.47,15.89-5.3,27.55-3.18,35,21.18,42.37,21.18,45.55S328.05,548.51,327,548.51s-59.46-23.92-59.46-23.92,1.2-19.51,6.49-28,10.6-31.78,8.48-42.37-11.66-27.55-12.71-31.78-8.48-24.37-8.48-24.37-14.83,27.54-15.89,30.72-9.53,20.13-14.83,25.43-61.44,41.31-62.5,43.43,4.24,11.65-2.12,16.95-7.41,9.53-11.65,10.59-9.53,1.06-8.47-3.18-5.3-7.41-12.72-10.59-5.29-6.36-1.06-9.54,37.08-31.77,41.32-38.13,21.18-29.66,35-39.2,13.77-23.3,15.88-27.54,10.6-43.43,22.25-59.32,23.31-18,30.72-16.95,25.42,5.3,30.72-1.06,3.71-16.42,3.71-16.42,35,0,38.13-1.06c0,0-1.06,12.72,3.18,16.95s31.25,5.83,39.73,7.95,21.18,1.06,27.54,10.59,17,38.14,20.13,47.67S449.87,415,449.87,415s11.65-23.3,32.84-54c12.71-19.07,14.83-21.19,14.83-21.19l15.89,6.36s-16.95,37.07-23.31,56.14-26.48,49.79-31.78,53-17.55,10.95-20.12,7.42C415.44,431.46,405.38,390.68,405.38,390.68Z"/><path class="cls-9" d="M353.47,225.42c-4.37-4.36-22.24,26.49-29.66,25.43s-19.07-6.36-18,0-.13,22.09-.07,29a43.81,43.81,0,0,0,7,23.38c5.29,8.48-.53,11.13-2.65,19.6s-6.36,12.71-6.36,21.19V358.9s-6.88-15.36-5.82-22.78c1.09-7.63,2.49-11.23,0-18s-.53-13.24-.53-14.3-13.77-12.71-15.89-28.6-6.36-61.44,12.71-72,38.66-13.24,51.38-9,21.1,9.36,27.54,22.25c6.35,12.71-2.12,31.78-2.12,31.78S356.65,228.6,353.47,225.42Z"/><path class="cls-9" d="M321.16,257.73c-1.06,4.24-3.71,6.89-1.59,18.54s2.12,18,0,37.08-4.23,19.06-1.06,26.48c0,0-6.35-1.06-2.11-25.42s0-30.72-1.06-36-5.26-21.24-3.16-30.22,15.34,1.09,15.34,1.09S322.22,253.5,321.16,257.73Z"/><path class="cls-11" d="M268.73,376.91l-7.42,21.18,9,26S278.79,441,283,457.94c-1.57-13-10.07-64.4-10.07-67.26C273,385.38,268.73,376.91,268.73,376.91Z"/><path class="cls-11" d="M274.4,527.4s13.92-34.5,15-51.45-15.89-77.33-15.89-77.33L272.88,430s10,20.48,9.8,26.6-.3,20.35-5.54,33.36-7.94,18.21-8.71,26.2l-.76,8Z"/><path class="cls-12" d="M320.63,530.51c18.14,0,49.79-8.48,56.15-8.48s39.19-4.24,50.84,0,37.08,3.18,7.42,25.43-138.77,38.13-138.77,38.13L211.52,503s7.42,1.06,32.84,12.72,35,11.65,45.55,11.65S316.4,530.51,320.63,530.51Z"/><path class="cls-13" d="M304.27,567.26s46.55-4.44,52.91-7.62,18-16.95,24.36-21.19,21.18-13,20.66-12.84,5.73-5.53,5.73-5.53l12.07.53,1.8,23.14-57.21,30.72L316.92,584Z"/><path class="cls-12" d="M496.48,506.14c-.52,0-1-.07-1.55-.12-15.32-1.4-30.07-8-56.71,3.3C410.67,521,390.55,539,383.13,548.51s-7.41,11.66-14.83,15.89S323.81,575,319.57,575,256,586.65,250.72,589.83s-9.54,13.77-9.54,18,2.12,13.77,10.6,15.89,18,2.11,24.36-2.12,30.72-9.54,42.37-12.71,78.39-10.6,95.34-13.78,38.14-15.89,48.73-18,19.07-4.24,26.48-11.66,25.43-24.36,24.37-37.07S499.66,506.14,496.48,506.14Z"/><path class="cls-7" d="M315.87,576.59c-4.24,0-59.86,10.06-65.15,13.24s-9.54,13.77-9.54,18,2.12,13.77,10.6,15.89,18,2.11,24.36-2.12,30.72-9.54,42.37-12.71S320.1,576.59,315.87,576.59Z"/><path class="cls-14" d="M176.57,494.49c9.75.46,29.66,5.3,39.19,8.47s68.86,51.91,95.34,68.86,41.31,22.25,53,20.13,15.89-4.24,35-1.06c18.69,3.11,30.72,0,33.9,2.12s13.77,8.47,9.53,16.94-8.47,11.66-13.77,14.84-23.3-3.18-33.9-3.18-27.54-2.12-44.49-2.12c-16.75,0-59.32-24.37-80.5-27.54s-37.08-2.12-43.44-3.18-37.07-21.19-43.43-24.37-38.13-27.54-36-48.72S154.32,493.43,176.57,494.49Z"/><path class="cls-7" d="M336.42,586.19c11.84,5.51,20.36,7.08,27.64,5.76,11.66-2.12,15.89-4.24,35-1.06,18.69,3.11,30.72,0,33.9,2.12s13.77,8.47,9.53,16.94-8.47,11.66-13.77,14.84-23.3-3.18-33.9-3.18-27.54-2.12-44.49-2.12c-6.55,0-17.07-3.74-28.71-8.47C315.57,608.57,329.32,582.89,336.42,586.19Z"/><path class="cls-7" d="M168.09,497.67c-1.06,2.12,4.24,11.65-2.12,16.95s-7.41,9.53-11.65,10.59-9.53,1.06-8.47-3.18-5.3-7.41-12.72-10.59-5.29-6.36-1.06-9.54,37.08-31.77,41.32-38.13c5.82,5.83,12.18,12.18,13.24,20.66C177.1,490.78,168.4,497.06,168.09,497.67Z"/><ellipse class="cls-15" cx="116.64" cy="488.65" rx="16.68" ry="3.19"/><polygon class="cls-16" points="736.05 137.42 718.91 141.09 721.42 131.47 736.05 137.42"/><polygon class="cls-7" points="797.81 105.23 692.15 113.43 717.18 128.67 792.56 106.63 721.42 131.47 752.5 150.01 797.81 105.23"/><polygon class="cls-17" points="717.18 128.67 718.91 141.09 721.42 131.47 792.56 106.63 717.18 128.67"/><path class="cls-7" d="M708,146.68a3.26,3.26,0,0,1-.81.21l-.64.12-1.25.21-2.5.42c-1.66.28-3.32.58-5,.9q-5,1-9.88,2.09a180.54,180.54,0,0,0-19.33,5.62,114.58,114.58,0,0,0-18.25,8.18,71.81,71.81,0,0,0-8.34,5.43c-.68.47-1.3,1-1.95,1.53s-1.28,1-1.87,1.6l-.91.83a6.61,6.61,0,0,0-.84.83,11.73,11.73,0,0,0-1.36,1.79,5.29,5.29,0,0,0-.83,3.83,5.14,5.14,0,0,0,2.4,3.09,9.22,9.22,0,0,0,8.43.71,7,7,0,0,0,3.63-7.11,5.91,5.91,0,0,0-1.91-3.68,8.17,8.17,0,0,0-4-1.88,17,17,0,0,0-4.73-.15l-1.21.15-1.19.25a16.38,16.38,0,0,0-2.37.58,33.12,33.12,0,0,0-8.87,4.22,51.08,51.08,0,0,0-7.72,6.3,59,59,0,0,0-6.54,7.59l-.84-.55a54.81,54.81,0,0,1,6.37-8,52.09,52.09,0,0,1,7.74-6.77,32.9,32.9,0,0,1,9.26-4.71,17,17,0,0,1,2.54-.68l1.29-.29,1.31-.19a18.61,18.61,0,0,1,5.37.07,10.44,10.44,0,0,1,5.12,2.33,8.33,8.33,0,0,1,2.77,5.08,9.66,9.66,0,0,1-.85,5.68,8.67,8.67,0,0,1-4.07,4.17,11,11,0,0,1-5.63,1,12.17,12.17,0,0,1-5.38-1.75,7.84,7.84,0,0,1-3.62-4.76,6.85,6.85,0,0,1,0-3.12,10.08,10.08,0,0,1,1.1-2.75,14.46,14.46,0,0,1,1.69-2.26,10.64,10.64,0,0,1,1-.95l1-.89c.63-.61,1.3-1.16,2-1.71s1.32-1.11,2-1.62a75.5,75.5,0,0,1,8.62-5.69,91.68,91.68,0,0,1,9.21-4.57c3.14-1.37,6.34-2.61,9.58-3.67a151.2,151.2,0,0,1,19.78-5.12c3.34-.67,6.69-1.21,10.06-1.65,1.69-.22,3.37-.42,5.06-.61l2.53-.25,1.26-.11.62-.06c.18,0,.49-.09.43,0Z"/><rect class="cls-9" x="97.61" y="488.65" width="38.04" height="44.29"/><ellipse class="cls-9" cx="116.64" cy="532.94" rx="19.02" ry="4.87"/><ellipse class="cls-9" cx="116.64" cy="488.65" rx="19.02" ry="4.87"/><path class="cls-9" d="M141.17,495.28h-6.35a5.47,5.47,0,0,0-5.63,5.27V522.1a5.47,5.47,0,0,0,5.63,5.27h6.35a5.47,5.47,0,0,0,5.63-5.27V500.55A5.47,5.47,0,0,0,141.17,495.28Zm2.2,23.55a5.47,5.47,0,0,1-5.63,5.26h-1.12a5.48,5.48,0,0,1-5.64-5.26v-15a5.48,5.48,0,0,1,5.64-5.26h1.12a5.47,5.47,0,0,1,5.63,5.26Z"/><ellipse class="cls-14" cx="116.64" cy="488.65" rx="15.84" ry="3.19"/><path class="cls-18" d="M115.74,491.85c-3.45-17.47-12.55-29.79-11.95-44.76.68-16.94,19.21-33,23-42.93s1.35-32.76-1.58-38.86c0,0,17.17,25.53,15.81,37.5s-14.38,24-10,41.58c3.31,13.3-5.6,35.9-10.81,47.44Z"/><path class="cls-7" d="M151.52,524.65c-.78.17-7.38-2.47-9.3-3.95l-6.56-5.08V503.7l15.09-8.85Z"/><circle class="cls-1" cx="545.28" cy="105.23" r="52.99"/></svg>